<svg height="600" width="600" viewBox="0 0 600 600" xmlns="http://www.w3.org/2000/svg"><path d="M69.38 576.23c-2.5-9.039 1.59-26.234 15.87-33.531s66.687-13.049 76-21.066c24-20.66 40-17.934 72-29.934s37.583-31.813 92-31.813c8.81 0 30.547 13.084 49 19.813 22.851 8.332 42.779 11.252 52 19 16.098 13.522 30.072 16.776 47.066 21.801 22.76 6.729 45.024 16.289 53 32.201 6.59 13.151 4.758 27.455 4.758 27.455-58.166 5.692-459.636 3.516-461.694-3.926z" fill="#42210b"/><g fill="#a5ce37"><path d="M366.216 68.435c6.349 5.431 9.281 10.777 9.012 15.77-.213 3.884-2.362 7.553-6.356 10.881-5.285-4.561-5.945-10.318-5.271-15.514.584-4.524 2.181-8.622 2.615-11.137zM408.274 141.956c1.508 2.359 4.75 5.877 7.291 10.189 2.918 4.953 4.907 10.953 2.271 17.439-5.021-1.873-8.563-4.76-10.484-8.568-2.472-4.898-2.265-11.316.922-19.06zM342.131 81.76c5.467 8.646 7.068 16.605 5.127 23.537-1.514 5.391-5.164 10.158-10.813 14.141-4.541-7.254-3.41-15.406-.941-22.555 2.15-6.222 5.31-11.683 6.627-15.123z"/><path d="M391.606 113.26c-8.005 4.445-14.48 4.334-19.253.15-3.709-3.254-6.385-8.971-7.946-16.924 6.705-3.672 12.614-.164 17.414 4.717 4.176 4.25 7.508 9.547 9.785 12.057zM348.945 285.145c1.791 2.297 5.645 5.723 8.66 9.918 3.469 4.818 5.827 10.656 2.698 16.969-5.963-1.822-10.17-4.634-12.453-8.339-2.936-4.767-2.69-11.013 1.095-18.548zM277.134 133.591c5.174-6.66 10.705-9.568 16.271-8.971 4.324.467 8.672 3.055 12.885 7.652-4.351 5.543-10.635 5.924-16.479 4.869-5.085-.917-9.835-2.921-12.677-3.55zM179.56 141.531c8.822-5.037 16.32-5.716 22.246-2.461 4.609 2.533 8.266 7.445 10.85 14.543-7.395 4.17-14.572 1.672-20.6-2.223-5.246-3.388-9.617-7.835-12.496-9.859zM261.48 141.956c-.066 3.675.803 10.101.471 16.611-.379 7.482-2.34 15.078-9.111 18.758-3.662-6.541-5.229-12.648-4.625-18.094.775-7.004 5.144-12.92 13.265-17.275zM388.98 184.592c-5.039 8.775-10.689 12.85-16.591 12.506-4.588-.271-9.327-3.211-14.051-8.693 4.242-7.307 10.842-8.248 17.064-7.352 5.416.779 10.545 2.953 13.578 3.539zM406.967 253.743c-3.699 11.783-8.74 18.707-14.721 20.923-4.652 1.723-9.873.598-15.469-3.305 3.125-9.832 9.608-13.759 16-15.513 5.563-1.527 11.053-1.406 14.19-2.105zM422.5 202.877c-2.896-.293-8.031.121-13.15-.598-5.877-.832-11.729-3.16-14.125-9.787 5.441-3.047 10.382-4.143 14.638-3.229 5.471 1.173 9.813 5.673 12.637 13.614zM427.31 258.896c-.786 2.802-1.266 7.933-2.858 12.851-1.828 5.648-5.131 11.008-12.072 12.225-2.063-5.883-2.291-10.939-.66-14.971 2.101-5.189 7.277-8.692 15.59-10.105zM406.752 341.335c-2.711 1.854-7.002 6.267-11.902 9.299-5.633 3.48-12.073 5.142-17.858-.997 3.096-7.808 6.832-12.89 11.082-15.031 5.465-2.758 11.781-.667 18.678 6.729zM460.141 188.945c1.177 2.663 4.076 6.925 5.979 11.729 2.186 5.52 3.057 11.758-1.521 17.115-5.338-3.223-8.731-6.975-10.045-11.123-1.683-5.337.077-11.335 5.587-17.721zM234.745 197.504c2.266-1.83 5.625-5.738 9.766-8.828 4.762-3.547 10.557-6.008 16.922-2.988-1.721 5.996-4.461 10.25-8.125 12.594-4.716 3.015-10.964 2.879-18.563-.778zM148.887 264.596c2.676 1.15 7.709 1.893 12.375 4.209 5.357 2.662 10.23 7.398 10.488 17.219-6.127 2.836-11.18 3.092-14.963.73-4.865-3.035-7.635-10.396-7.9-22.158zM427.58 179.039c4.354-6.844 9.014-9.834 13.699-9.219 3.643.48 7.303 3.139 10.852 7.865-3.664 5.695-8.957 6.086-13.877 5.002-4.283-.941-8.283-3.002-10.674-3.648zM231.906 342.352c7.426-5.175 13.742-5.873 18.73-2.525 3.881 2.602 6.959 7.65 9.133 14.945-6.225 4.285-12.27 1.717-17.344-2.283-4.416-3.488-8.097-8.055-10.519-10.137zM299.823 272.342c-.428 9.264-2.311 14.986-5.4 17.242-2.404 1.754-5.535 1.41-9.281-.998.379-7.732 3.512-11.328 6.9-13.275 2.949-1.693 6.093-2.136 7.781-2.969zM325.08 23.673c.471 1.67 1.85 4.438 2.566 7.43.821 3.443.77 7.188-2.529 9.928-2.967-2.375-4.695-4.883-5.111-7.441-.533-3.29 1.107-6.659 5.074-9.917zM241.967 92.417c1.795-.16 4.869-.986 8.063-1.146 3.67-.186 7.5.508 9.74 4.102-2.943 2.398-5.816 3.602-8.508 3.553-3.463-.065-6.635-2.194-9.295-6.509zM299.438 49.855c2.787 1.852 8.623 4.258 13.352 7.719 5.436 3.979 9.408 9.352 5.631 16.881-8.664-.096-14.938-1.752-18.572-4.926-4.673-4.08-4.99-10.668-.411-19.674z"/><path d="M288.543 132.31c-.037 2.951.416 8.111.244 13.336-.199 6.01-1.215 12.107-4.734 15.061-1.906-5.252-2.719-10.156-2.406-14.527.402-5.624 2.676-10.374 6.896-13.87zM399.837 77.826c-2.621 7.045-5.559 10.318-8.627 10.043-2.385-.217-4.852-2.578-7.303-6.982 2.205-5.865 5.633-6.619 8.871-5.902 2.815.628 5.481 2.374 7.059 2.841zM311.865 166.9c-1.924 9.461-4.543 15.019-7.654 16.8-2.42 1.382-5.133.479-8.043-2.656 1.625-7.892 4.998-11.046 8.32-12.454 2.889-1.227 5.746-1.128 7.377-1.69zM452.31 132.31c3.813 6.578 4.062 12.027 1.103 16.188-2.297 3.23-6.529 5.684-12.533 7.273-3.147-5.508-.771-10.602 2.719-14.809 3.033-3.66 6.912-6.649 8.711-8.652zM305.857 266.79c-2.862.549-7.643 2.299-12.761 3.1-5.881.92-12.207.588-16.584-4.25 4.236-4.011 8.613-6.269 12.967-6.677 5.604-.522 11.169 2.017 16.378 7.827zM418.977 213.517c-2.897 1.77-7.299 5.648-12.579 8.605-6.066 3.398-13.291 5.58-20.732 1.938 2.602-6.191 6.281-10.479 10.918-12.688 5.963-2.843 13.512-2.249 22.393 2.145zM255.058 288.666c2.875-.465 7.732-2.186 12.863-2.803 5.895-.711 12.146.033 16.166 5.82-4.473 4.346-8.965 6.674-13.311 6.889-5.589.271-10.945-2.957-15.718-9.906zM240.757 232.534c2.971.555 8.172.457 13.441 1.666 6.055 1.391 12.199 4.502 15.16 12.287-5.301 3.094-10.248 3.984-14.656 2.621-5.666-1.757-10.441-7.242-13.945-16.574zM445.584 221.716c7.695 3.445 11.832 8.133 12.57 13.68.571 4.314-.914 9.152-4.383 14.332-6.416-2.914-8.273-8.93-8.634-14.855-.311-5.161.509-10.247.447-13.157zM343.185 163.882c1.791 2.297 5.646 5.723 8.66 9.918 3.47 4.818 5.828 10.656 2.699 16.969-5.963-1.822-10.17-4.633-12.453-8.338-2.938-4.768-2.692-11.014 1.094-18.549zM377.646 135.911c-.787 2.801-1.267 7.932-2.859 12.85-1.828 5.648-5.131 11.008-12.072 12.225-2.063-5.883-2.291-10.939-.66-14.971 2.103-5.188 7.279-8.692 15.591-10.104zM394.226 308.755c-5.318 6.535-11.297 9.578-17.547 9.339-4.859-.189-9.887-2.361-14.898-6.423 4.479-5.44 11.468-6.157 18.06-5.51 5.734.566 11.171 2.166 14.385 2.594zM376.653 208.617c-.429 9.264-2.312 14.985-5.4 17.241-2.404 1.754-5.535 1.41-9.281-.998.379-7.731 3.513-11.327 6.9-13.274 2.949-1.693 6.094-2.137 7.781-2.969zM401.953 362.744c7.617 6.516 11.138 12.933 10.813 18.924-.255 4.659-2.836 9.063-7.629 13.057-6.342-5.472-7.134-12.382-6.325-18.615.704-5.428 2.622-10.349 3.141-13.366zM221.009 131.871c1.81 2.831 5.7 7.052 8.749 12.227 3.501 5.944 5.891 13.145 2.727 20.928-6.027-2.248-10.275-5.712-12.582-10.282-2.967-5.879-2.719-13.58 1.106-22.873zM212.914 252.404c6.559 10.374 8.48 19.927 6.151 28.245-1.815 6.469-6.197 12.189-12.976 16.968-5.448-8.705-4.092-18.488-1.129-27.066 2.582-7.466 6.373-14.019 7.954-18.147zM292.482 373.307c-9.605 5.334-17.376 5.2-23.103.18-4.45-3.903-7.661-10.764-9.536-20.309 8.045-4.406 15.138-.195 20.896 5.66 5.011 5.1 9.011 11.457 11.743 14.469zM358.57 225.868c2.148 2.756 6.772 6.867 10.392 11.901 4.163 5.782 6.994 12.787 3.239 20.362-7.154-2.187-12.203-5.56-14.943-10.006-3.526-5.72-3.23-13.215 1.312-22.257zM217.251 206.384c6.209-7.992 12.847-11.481 19.526-10.765 5.189.561 10.406 3.666 15.461 9.183-5.219 6.652-12.761 7.109-19.773 5.844-6.104-1.102-11.803-3.507-15.214-4.262z"/><path d="M243.898 279.632c11.831 2.939 18.902 8.563 21.348 16.299 1.901 6.018 1.004 13.312-2.636 21.613-9.873-2.508-14.032-10.624-16.037-18.999-1.745-7.288-1.853-14.77-2.675-18.913zM357.084 142.791c-2.222-1.519-6.742-3.18-10.536-6.088-4.363-3.339-7.771-8.321-5.648-16.615 6.4-1.114 11.179-.282 14.142 2.478 3.809 3.551 4.621 10.302 2.042 20.225zM277.957 264.635c-6.047 10.531-12.827 15.42-19.908 15.008-5.505-.326-11.193-3.854-16.861-10.433 5.091-8.768 13.012-9.897 20.479-8.821 6.496.934 12.65 3.543 16.29 4.246zM231.773 164.301c-4.439 14.141-10.489 22.449-17.666 25.109-5.583 2.066-11.847.717-18.563-3.966 3.75-11.799 11.531-16.512 19.2-18.616 6.676-1.833 13.265-1.687 17.029-2.527zM423.333 326.462c-3.477-.353-9.638.146-15.781-.717-7.052-.999-14.074-3.792-16.95-11.745 6.529-3.656 12.458-4.971 17.563-3.874 6.567 1.406 11.778 6.808 15.168 16.336zM279.572 66.276c-.945 3.363-1.519 9.521-3.431 15.422-2.194 6.778-6.158 13.209-14.487 14.669-2.477-7.059-2.749-13.127-.793-17.965 2.526-6.226 8.737-10.429 18.711-12.126zM358.555 56.418c-3.253 2.224-8.402 7.519-14.282 11.158-6.76 4.177-14.488 6.169-21.432-1.197 3.714-9.368 8.198-15.467 13.298-18.038 6.559-3.31 14.139-.797 22.416 8.077zM204.347 300c1.411 3.193 4.893 8.309 7.176 14.074 2.621 6.623 3.667 14.109-1.827 20.537-6.404-3.866-10.478-8.368-12.053-13.348-2.019-6.404.093-13.602 6.704-21.263zM250.683 125.773c2.719-2.196 6.75-6.886 11.719-10.594 5.715-4.256 12.668-7.209 20.307-3.586-2.065 7.195-5.354 12.3-9.75 15.112-5.659 3.62-13.157 3.456-22.276-.932zM358.34 266.989c1.944.704 5.602 1.157 8.99 2.573 3.893 1.627 7.433 4.523 7.62 10.526-4.451 1.734-8.122 1.89-10.871.446-3.534-1.854-5.547-6.355-5.739-13.545zM205.284 380.671c5.227-8.213 10.815-11.801 16.438-11.063 4.371.576 8.763 3.768 13.022 9.438-4.397 6.834-10.749 7.304-16.653 6.002-5.138-1.129-9.939-3.603-12.807-4.377zM417.554 289.022c8.911-6.211 16.49-7.05 22.478-3.033 4.655 3.122 8.35 9.184 10.959 17.935-7.471 5.143-14.724 2.063-20.813-2.738-5.301-4.183-9.718-9.667-12.624-12.164zM421.178 342.302c-.513 11.116-2.771 17.983-6.479 20.688-2.886 2.107-6.644 1.695-11.139-1.195.455-9.277 4.215-13.594 8.279-15.93 3.54-2.033 7.313-2.565 9.339-3.563zM185.955 269.858c.565 2.004 2.22 5.325 3.079 8.916.987 4.132.924 8.625-3.034 11.914-3.561-2.85-5.635-5.859-6.135-8.93-.638-3.947 1.33-7.99 6.09-11.9zM419.068 370.923c2.152-.192 5.842-1.184 9.675-1.376 4.403-.223 9 .609 11.688 4.922-3.53 2.879-6.979 4.322-10.209 4.264-4.156-.079-7.961-2.633-11.154-7.81zM449.429 258.458c3.346 2.222 10.349 5.109 16.021 9.262 6.522 4.774 11.291 11.223 6.758 20.258-10.396-.115-17.925-2.103-22.287-5.911-5.607-4.898-5.986-12.803-.492-23.609zM377.667 352.477c-.044 3.541.5 9.732.293 16.002-.238 7.213-1.457 14.529-5.681 18.073-2.288-6.303-3.264-12.188-2.889-17.434.484-6.747 3.213-12.447 8.277-16.641zM257.646 374.539c-3.146 8.453-6.67 12.383-10.353 12.051-2.861-.26-5.822-3.094-8.763-8.379 2.646-7.037 6.759-7.941 10.646-7.082 3.376.754 6.576 2.85 8.47 3.41zM477.318 231.543c-2.309 11.353-5.451 18.021-9.186 20.158-2.904 1.66-6.159.577-9.65-3.188 1.949-9.469 5.996-13.254 9.983-14.943 3.468-1.472 6.897-1.355 8.853-2.027zM185.432 293.684c4.574 7.894 4.873 14.433 1.321 19.425-2.756 3.875-7.834 6.82-15.039 8.728-3.778-6.608-.927-12.722 3.263-17.771 3.643-4.392 8.297-7.978 10.455-10.382zM457.462 172.375c-3.436.658-9.17 2.758-15.313 3.719-7.058 1.104-14.648.706-19.9-5.1 5.083-4.814 10.336-7.523 15.56-8.014 6.723-.625 13.403 2.422 19.653 9.395zM260.744 322.768c-3.478 2.123-8.758 6.778-15.095 10.326-7.28 4.078-15.95 6.696-24.88 2.325 3.122-7.43 7.537-12.573 13.102-15.226 7.157-3.412 16.217-2.699 26.873 2.575z"/><path d="M298.215 80.779c-.726 3.419-.905 9.6-2.438 15.609-1.759 6.903-5.3 13.577-13.518 15.567-2.925-6.888-3.584-12.924-1.942-17.879 2.12-6.372 8.054-10.967 17.898-13.297zM374.712 277.66c1.946.666 5.356.549 8.812 2 3.969 1.668 7.996 5.402 9.938 14.744-3.474 3.713-6.718 4.781-9.605 3.146-3.718-2.11-6.848-8.691-9.145-19.89zM276.782 200.543c9.234 4.135 14.198 9.76 15.084 16.416.687 5.178-1.097 10.982-5.259 17.198-7.7-3.497-9.929-10.716-10.359-17.826-.375-6.192.609-12.295.534-15.788zM272.902 224.87c.564 2.004 2.22 5.325 3.079 8.916.987 4.132.923 8.625-3.034 11.913-3.563-2.85-5.634-5.859-6.134-8.929-.64-3.948 1.329-7.991 6.089-11.9z"/></g><path d="M326.668 344.41c0 5.767-.217 10.994-.355 16.263-.018.687 8.033-6.08 19.584-16.073.884-.765 31.933-75.185 32.854-75.985.879-.765-28.367 72.094-27.455 71.301 29.748-25.863 108.455-94.846 108.455-93.165-.002 1.296-69.73 64.943-98.766 93.126-.375.362 61.887 32.595 61.516 32.954-.738.717-64.104-30.441-64.83-29.734-17.477 16.983-31.385 30.688-31.354 31.536.133 3.595.395 7.396.854 11.548 1.559 14.016-.281 34.766.996 47.031 2.395 22.919 6.969 33.342 3.5 40.369-8.949 18.103-18.141 18.103-19.639 18.103-17.167 0 2.646-26.914 3.662-104.102.174-13.502 1.495-27.681 1.495-42.817 0-.77-13.942-6.334-31.375-13.104-.476-.186-51.833 49.956-52.313 49.77-.967-.375 48.936-51.08 47.951-51.461-28.422-11.005-109.697-41.682-109.7-42.969-.004-1.279 90.303 29.938 119.684 38.708.817.243-21.072-81.062-20.279-80.827.393.117 23.477 81.778 23.863 81.893 12.87 3.816 22.14 6.392 22.138 5.777-.101-22.771-.344-50.769.533-79.755.239-7.967.559-20.117.918-34.641.008-.288-11.742-7.181-27.559-16.36-.771-.447-40.512 1.563-41.3 1.106-.399-.232 38.161-2.927 37.757-3.161-32.488-18.835-78.772-45.424-78.757-46.006.033-1.353 60.833 31.413 92.039 47.536.263.135-16.046-41.479-15.789-41.345.509.262 17.579 42.268 18.071 42.521 9.493 4.884 15.729 7.934 15.739 7.485.479-19.639 1.016-42.63 1.529-65.18.024-1.083-59.614-48.42-59.59-49.502.025-1.085 59.714 44.086 59.738 43.005 1.138-49.981 2.135-95.96 2.135-95.96s.605 38.031 1.349 87.452c.02 1.247 61.01-50.756 61.029-49.496.02 1.323-60.932 55.911-60.912 57.249.455 30.389.95 64.398 1.385 96.235.009.606 10.644-6.51 25.48-16.682.285-.196 12.147-58.304 12.438-58.502.582-.399-10.403 57.108-9.811 56.699 34.477-23.677 88.4-61.49 88.42-60.139.02 1.52-57.822 45.079-91.951 71.4-.957.738 39.367-3.62 38.451-2.91-.912.706-43.068 6.479-43.939 7.153-11.323 8.78-18.928 14.855-18.92 15.4.593 44.103 1.031 82.328 1.031 98.256z" fill="#8c6239"/></svg>