<svg enable-background="new 0 0 600 600" height="600" viewBox="0 0 600 600" width="600" xmlns="http://www.w3.org/2000/svg"><path d="m69.38 576.23c-2.5-9.039 1.59-26.234 15.87-33.531s66.687-13.049 76-21.066c24-20.66 40-17.934 72-29.934s37.583-31.813 92-31.813c8.81 0 30.547 13.084 49 19.813 22.851 8.332 42.779 11.252 52 19 16.098 13.522 30.072 16.776 47.066 21.801 22.76 6.729 45.024 16.289 53 32.201 6.59 13.151 4.758 27.455 4.758 27.455-58.166 5.692-459.636 3.516-461.694-3.926z" fill="#42210b"/><g fill="#a5ce37"><path d="m318.261 130.94c21.217 17.713 30.281 36.023 27.996 53.918-1.787 13.92-10.434 27.59-25.57 40.523-17.655-14.885-18.487-35.262-14.71-53.992 3.284-16.3 10.073-31.353 12.284-40.449z"/><path d="m428.661 408.739c-4.828-.488-13.387.201-21.918-1-9.797-1.386-19.547-5.269-23.541-16.312 9.067-5.078 17.299-6.904 24.393-5.383 9.121 1.959 16.359 9.455 21.066 22.695z"/><path d="m383.763 323.161c-1.313 4.67-2.108 13.223-4.766 21.418-3.049 9.414-8.553 18.348-20.123 20.375-3.439-9.806-3.818-18.231-1.098-24.953 3.504-8.647 12.131-14.483 25.987-16.84z"/><path d="m269.269 302.503c2.725 4.015 8.754 10.133 13.307 17.445 5.232 8.397 8.52 18.366 2.617 28.518-9.717-3.688-16.402-8.827-19.793-15.237-4.356-8.25-3.26-18.613 3.869-30.726z"/><path d="m222.226 416.39c3.166-3.676 7.506-11.09 13.379-17.391 6.748-7.237 15.514-13.006 26.854-9.953-1.035 10.34-4.254 18.135-9.563 23.076-6.829 6.356-17.118 7.994-30.67 4.268z"/><path d="m281.442 242.44c2.094 2.18 6.6 5.436 10.129 9.422 4.051 4.582 6.814 10.129 3.154 16.127-6.975-1.732-11.896-4.402-14.564-7.922-3.435-4.531-3.148-10.466 1.281-17.627z"/><path d="m240.263 281.839c6.055-6.328 12.523-9.092 19.031-8.523 5.061.443 10.145 2.9 15.07 7.271-5.088 5.266-12.441 5.625-19.273 4.625-5.947-.871-11.5-2.775-14.828-3.373z"/><path d="m188.292 245.632c17.197-7.977 31.818-9.053 43.369-3.895 8.984 4.01 16.111 11.791 21.145 23.031-14.41 6.605-28.402 2.648-40.152-3.518-10.227-5.37-18.747-12.411-24.362-15.618z"/><path d="m366.612 238.204c-.074 3.801.918 10.447.541 17.18-.437 7.738-2.679 15.596-10.422 19.4-4.191-6.766-5.984-13.082-5.294-18.713.888-7.246 5.884-13.365 15.175-17.867z"/><path d="m398.44 294.562c-5.769 9.075-12.229 13.29-18.978 12.934-5.248-.281-10.672-3.32-16.072-8.994 4.855-7.557 12.4-8.531 19.521-7.602 6.193.806 12.057 3.056 15.529 3.662z"/><path d="m458.423 237.784c-7.051 20.313-16.664 32.248-28.063 36.07-8.871 2.969-18.824 1.029-29.494-5.699 5.959-16.947 18.322-23.717 30.506-26.742 10.602-2.633 21.072-2.422 27.051-3.629z"/><path d="m440.84 327.875c-3.525 4.188-8.445 13.188-14.962 20.246-7.489 8.105-17.091 13.645-29.121 6.371 1.483-13.917 5.215-23.742 11.083-29.083 7.546-6.869 18.623-6.327 33 2.466z"/><path d="m200.47 345.639c4.855.051 13.07-2.046 21.733-1.484 9.951.646 20.491 4.794 27.204 19.728-7.597 8.302-15.201 11.942-22.537 10.745-9.434-1.539-18.426-11.073-26.4-28.989z"/></g><path d="m326.669 384.593c0 4.191-.217 7.991-.354 11.82-.019.498 8.032-4.419 19.583-11.683.884-.557 31.932-54.648 32.854-55.23.88-.557-28.366 52.4-27.454 51.825 29.747-18.8 75.455-48.298 75.454-47.075-.001.941-36.729 26.563-65.766 47.047-.374.264 61.887 23.691 61.516 23.953-.738.521-64.104-22.127-64.83-21.613-17.476 12.346-31.385 22.308-31.354 22.923.133 2.612.395 5.376.855 8.394 1.56 10.188-.281 25.27.996 34.186 2.396 16.658 6.969 24.234 3.5 29.343-8.949 13.157-18.141 13.157-19.639 13.157-17.168 0 2.646-19.563 3.662-75.666.174-9.813 1.495-20.119 1.495-31.123 0-.559-13.943-4.604-31.375-9.522-.476-.134-51.833 36.311-52.313 36.175-.967-.272 48.936-37.127 47.951-37.404-28.423-7.998-63.448-17.66-63.451-18.596-.004-.93 44.053 9.123 73.435 15.499.817.177-21.072-58.92-20.279-58.749.393.085 23.477 59.439 23.863 59.523 12.871 2.773 22.14 4.646 22.137 4.199-.1-16.552-.343-36.9.534-57.971.239-5.791.559-14.622.918-25.179.007-.209-11.742-5.219-27.559-11.891-.771-.325-40.512 1.136-41.3.804-.399-.168 38.161-2.127 37.757-2.297-32.488-13.69-78.772-33.017-78.757-33.439.033-.983 60.833 22.833 92.039 34.552.262.098-16.046-30.148-15.789-30.052.509.19 17.578 30.722 18.07 30.906 9.495 3.55 15.729 5.767 15.739 5.44 1.596-47.459 3.816-121.849 3.816-121.849s1.657 75.542 2.851 139.146c.009.44 10.643-4.73 25.48-12.125.285-.142 12.147-42.378 12.438-42.522.582-.291-10.404 41.509-9.812 41.212 34.477-17.21 88.401-44.694 88.42-43.712.021 1.104-57.822 32.766-91.951 51.897-.957.536 39.368-2.631 38.451-2.115-.912.513-43.068 4.709-43.939 5.198-11.322 6.383-18.927 10.799-18.92 11.193.589 32.058 1.028 59.844 1.028 71.421z" fill="#8c8a3f"/></svg>