<svg enable-background="new 0 0 600 600" height="600" viewBox="0 0 600 600" width="600" xmlns="http://www.w3.org/2000/svg"><path d="m69.38 576.23c-2.5-9.039 1.59-26.234 15.87-33.531s66.687-13.049 76-21.066c24-20.66 40-17.934 72-29.934s37.583-31.813 92-31.813c8.81 0 30.547 13.084 49 19.813 22.851 8.332 42.779 11.252 52 19 16.098 13.522 30.072 16.776 47.066 21.801 22.76 6.729 45.024 16.289 53 32.201 6.59 13.151 4.758 27.455 4.758 27.455-58.166 5.692-459.636 3.516-461.694-3.926z" fill="#42210b"/><g fill="#a5ce37"><path d="m319.902 178.935c22.149 18.402 31.461 37.604 28.801 56.523-2.078 14.719-11.396 29.266-27.551 43.129-18.432-15.467-19.027-36.963-14.779-56.787 3.697-17.252 11.072-33.236 13.529-42.865"/><path d="m389.352 383.508c-3.623 3.23-8.896 10.01-15.545 15.486-7.639 6.289-17.088 10.856-27.928 6.34 2.379-10.117 6.596-17.42 12.508-21.623 7.605-5.4 18.019-5.674 30.965-.203z"/><path d="m211.137 316.666c18.801-10.711 34.77-12.178 47.375-5.297 9.801 5.352 17.566 15.754 23.041 30.789-15.756 8.869-31.029 3.6-43.844-4.633-11.16-7.168-20.451-16.578-26.572-20.859z"/><path d="m419.465 278.587c-1.44 22.063-9.172 36.513-22.125 43.396-10.086 5.348-23.328 6.121-39.227 2.338 1.293-18.432 14.379-28.5 28.614-34.801 12.388-5.485 25.646-8.114 32.738-10.933z"/></g><path d="m314.037 485.637c-13.779 0 2.123-17.918 2.938-69.305.142-8.992 1.201-18.43 1.201-28.508 0-7.057-.08-15.166-.104-23.951-.004-1.039-77.877-39.209-77.877-40.268 0-1.035 77.872 35.043 77.872 33.99.01-9.812.123-20.306.512-31 1.049-28.859 5.367-123.369 5.367-123.369s1.313 86.941 1.643 132.973c.006.762 72.531-33.341 72.535-32.584.008 1.168-72.504 37.188-72.496 38.338.125 19.31.16 36.256.16 45.633 0 9.051-.967 16.113.201 26.228.061.52 47.385-22.371 47.457-21.836.067.506-47.129 24.44-47.076 24.971.92 9.258-.351 22.035.619 29.76 1.922 15.256 5.594 22.197 2.807 26.875" fill="#8cc43f"/></svg>