<svg enable-background="new 0 0 600 600" height="600" viewBox="0 0 600 600" width="600" xmlns="http://www.w3.org/2000/svg"><path d="m69.38 576.23c-2.5-9.039 1.59-26.234 15.87-33.531s66.687-13.049 76-21.066c24-20.66 40-17.934 72-29.934 20-7.5 77.875-45.167 76.537-26.199-1 14.179-12.752 3.162-23.447 21.661-7.235 12.517-2.81 27.339 5.425 27.339 2.608 0 12.762 4.237 22.735-1 11.88-6.239 23.325-23.003 19-35.98-6-18 31.518-4.197 38-1.833 22.851 8.332 45.529 15.265 54.75 23.013 16.098 13.521 30.072 16.775 47.066 21.801 22.76 6.729 45.023 16.289 53 32.201 6.59 13.15 4.758 27.455 4.758 27.455-58.166 5.691-459.636 3.515-461.694-3.927z" fill="#42210b"/><path d="m311 480c3.462-1.814 6.854-2.093 9.5-2.48 2.645-.388 6.049-3.085 7.635-1.127 1.638 2.021-.392 5.013-.917 6.857-.583 2.054-2.398 5.855-4.467 8.243-3.541 4.096-10.901 12.457-15.367 13.327-2.928.57-7.204 1.172-9.134 1.665-2.348.601-5.571 2.53-7.49.161-2.323-2.87-.877-4.555.24-7.146.646-1.5 3.901-5.677 5-8.007 1.827-3.876 10.549-9.157 15-11.493z" fill="#c7b299"/><path d="m314.88 488.664c-3.534 3.214-6.642 5.843-9.317 7.958-14.021 11.087-16.401 12.366-9.391 6.14 6.889-6.108 12.914-11.083 17.582-14.683 16.796-12.955 18.668-15.371 1.126.585z" fill="#b3b3b3"/></svg>