<svg enable-background="new 0 0 600 600" height="600" viewBox="0 0 600 600" width="600" xmlns="http://www.w3.org/2000/svg"><path d="m69.38 576.23c-2.5-9.039 1.59-26.234 15.87-33.531s66.687-13.049 76-21.066c24-20.66 40-17.934 72-29.934s37.583-31.813 92-31.813c8.81 0 30.547 13.084 49 19.813 22.851 8.332 42.779 11.252 52 19 16.098 13.523 30.072 16.777 47.066 21.801 22.76 6.729 45.025 16.289 53 32.201 6.59 13.152 4.758 27.455 4.758 27.455-58.166 5.692-459.636 3.516-461.694-3.926z" fill="#42210b"/><path d="m311 480c3.462-1.814 6.854-2.093 9.5-2.48 2.645-.388 6.049-3.085 7.635-1.127 1.636 2.021-.392 5.011-.917 6.857-.583 2.054-2.4 5.855-4.467 8.243-3.541 4.096-10.901 12.457-15.367 13.327-2.928.572-7.204 1.172-9.134 1.665-2.348.601-5.571 2.532-7.49.162-2.323-2.871-.877-4.554.24-7.147.646-1.5 3.901-5.677 5-8.007 1.827-3.876 10.549-9.157 15-11.493z" fill="#c7b299"/><path d="m314.88 488.664c-3.534 3.214-6.642 5.843-9.317 7.958-14.023 11.087-16.403 12.366-9.391 6.14 6.889-6.11 12.914-11.083 17.582-14.683 16.796-12.955 18.668-15.371 1.126.585z" fill="#b3b3b3"/><path d="m321.423 445.58c0 4.082-.535 7.221.203 11.928.625 4.002-.113 9.93.4 13.432.959 6.545 3.811 11.111 1.404 11.527-6.723 1.164-7.287 5.17-7.887 5.17-.957 0 1.199-14.975 1.469-29.729.07-3.857.604-7.906.604-12.23 0-7.006-.217-16.436.201-26.264.527-12.381 1.211-39.697 1.904-39.697 1.495.002 1.702 52.054 1.702 65.863z" fill="#8cc63f"/><path d="m341.89 347.338c7.977 15.457 8.623 28.334 2.676 38.229-4.627 7.693-13.24 13.584-25.498 17.479-6.6-12.949-1.857-25.043 5.184-35.063 6.128-8.723 13.999-15.872 17.638-20.645z" fill="#a5ce37"/></svg>